<svg xmlns="http://www.w3.org/2000/svg" viewBox="0 0 128 128">
  <defs>
    <linearGradient id="panel-bg" x1="0%" y1="0%" x2="0%" y2="100%">
      <stop offset="0%" stop-color="#4f2f66"/>
      <stop offset="55%" stop-color="#1f2954"/>
      <stop offset="100%" stop-color="#111836"/>
    </linearGradient>
    <linearGradient id="panel-stroke" x1="0%" y1="0%" x2="100%" y2="100%">
      <stop offset="0%" stop-color="#4f8cff"/>
      <stop offset="50%" stop-color="#ff6ac1"/>
      <stop offset="100%" stop-color="#ffe66d"/>
    </linearGradient>
    <linearGradient id="kickstart-fill" x1="0%" y1="0%" x2="100%" y2="100%">
      <stop offset="0%" stop-color="#ffe66d"/>
      <stop offset="100%" stop-color="#ffd03d"/>
    </linearGradient>
  </defs>
  <rect x="6" y="6" width="116" height="116" rx="12" fill="#060914"/>
  <rect x="10" y="10" width="108" height="108" rx="10" fill="url(#panel-bg)" stroke="url(#panel-stroke)" stroke-width="4"/>
  <path d="M20 20h88v88H20z" fill="none" stroke="rgba(255,230,109,0.25)" stroke-width="2" stroke-dasharray="6 6" opacity="0.6"/>
  <g fill="rgba(79,140,255,0.18)">
    <rect x="24" y="32" width="80" height="2"/>
    <rect x="24" y="48" width="80" height="2"/>
    <rect x="24" y="64" width="80" height="2"/>
    <rect x="24" y="80" width="80" height="2"/>
    <rect x="32" y="24" width="2" height="80"/>
    <rect x="48" y="24" width="2" height="80"/>
    <rect x="64" y="24" width="2" height="80"/>
    <rect x="80" y="24" width="2" height="80"/>
    <rect x="96" y="24" width="2" height="80"/>
  </g>
  <g fill="url(#kickstart-fill)">
    <path d="M34 34h14v24l24-24h22L70 68l26 26H74L48 68v26H34Z"/>
    <path d="M78 86h24v12H78z"/>
  </g>
  <path d="M84 30h12l18 18-9 9-9-9v28H84z" fill="#4f8cff"/>
  <circle cx="96" cy="92" r="8" fill="#ff6ac1"/>
  <path d="M24 100h20v8H24z" fill="#4f8cff"/>
  <rect x="38" y="88" width="8" height="12" fill="#ff6ac1"/>
  <path d="M20 20h88v88H20z" fill="none" stroke="rgba(79,140,255,0.45)" stroke-width="1.5"/>
</svg>
